<svg id="Layer_1" data-name="Layer 1" xmlns="http://www.w3.org/2000/svg" viewBox="0 0 512 512"><defs><style>.cls-1{fill:#bdf2d5;}.cls-2{fill:#4b5d67;}</style></defs><rect class="cls-1" width="512" height="512" rx="256"/><g id="Layer_2" data-name="Layer 2"><path class="cls-2" d="M198.45,380.7a9.59,9.59,0,0,1-9.58,9.6H150.48a28.78,28.78,0,0,1-28.78-28.78h0V323.13a9.6,9.6,0,0,1,19.19,0v38.39a9.59,9.59,0,0,0,9.59,9.59h38.39a9.59,9.59,0,0,1,9.59,9.59ZM380.7,313.55a9.6,9.6,0,0,0-9.59,9.59v38.4a9.59,9.59,0,0,1-9.59,9.59H323.13a9.59,9.59,0,0,0,0,19.18h38.39a28.77,28.77,0,0,0,28.78-28.77h0v-38.4a9.59,9.59,0,0,0-9.59-9.59ZM131.31,198.45a9.6,9.6,0,0,0,9.59-9.59h0v-38.4a9.59,9.59,0,0,1,9.59-9.59h38.39a9.59,9.59,0,0,0,0-19.18H150.49a28.77,28.77,0,0,0-28.78,28.77v38.4a9.59,9.59,0,0,0,9.59,9.59h0ZM361.52,121.7H323.13a9.6,9.6,0,0,0,0,19.19h38.39a9.59,9.59,0,0,1,9.59,9.59v38.39a9.6,9.6,0,0,0,19.19,0V150.48A28.78,28.78,0,0,0,361.52,121.7ZM390.3,256a9.59,9.59,0,0,1-9.59,9.59H332.79V304A28.78,28.78,0,0,1,304,332.79H208A28.79,28.79,0,0,1,179.26,304h0V265.62H131.31a9.59,9.59,0,1,1,0-19.18h48V208a28.78,28.78,0,0,1,28.78-28.77H304A28.77,28.77,0,0,1,332.79,208h0v38.39h48A9.59,9.59,0,0,1,390.3,256Zm-191.85-9.59H313.56V208a9.59,9.59,0,0,0-9.59-9.59H208a9.59,9.59,0,0,0-9.59,9.59h0Zm115.11,19.18H198.45V304a9.59,9.59,0,0,0,9.59,9.59H304a9.59,9.59,0,0,0,9.59-9.59Z"/></g></svg>