<svg id="Layer_1" data-name="Layer 1" xmlns="http://www.w3.org/2000/svg" viewBox="0 0 512 512"><defs><style>.cls-1{fill:#bdf2d5;}.cls-2{fill:#4b5d67;}</style></defs><rect class="cls-1" x="-90.1" y="-71.13" width="692.2" height="654.27"/><g id="Layer_2" data-name="Layer 2"><path class="cls-2" d="M191.54,395.66a10.74,10.74,0,0,1-10.73,10.75h-43a32.23,32.23,0,0,1-32.23-32.23h0v-43a10.75,10.75,0,0,1,21.49,0v43a10.74,10.74,0,0,0,10.74,10.74h43a10.74,10.74,0,0,1,10.74,10.74Zm204.12-75.2a10.74,10.74,0,0,0-10.74,10.74v43a10.74,10.74,0,0,1-10.74,10.74h-43a10.75,10.75,0,0,0,0,21.49h43a32.23,32.23,0,0,0,32.23-32.23h0v-43a10.74,10.74,0,0,0-10.74-10.74ZM116.34,191.54a10.74,10.74,0,0,0,10.74-10.74h0v-43a10.74,10.74,0,0,1,10.74-10.74h43a10.75,10.75,0,0,0,0-21.49h-43a32.23,32.23,0,0,0-32.23,32.23v43a10.74,10.74,0,0,0,10.74,10.74Zm257.84-85.95h-43a10.75,10.75,0,0,0,0,21.49h43a10.74,10.74,0,0,1,10.74,10.74v43a10.75,10.75,0,0,0,21.49,0v-43A32.23,32.23,0,0,0,374.18,105.59ZM406.41,256a10.74,10.74,0,0,1-10.74,10.74H342v43A32.23,32.23,0,0,1,309.8,342H202.28a32.23,32.23,0,0,1-32.23-32.23h0v-43H116.34a10.74,10.74,0,1,1,0-21.48h53.72v-43a32.23,32.23,0,0,1,32.23-32.23H309.72A32.23,32.23,0,0,1,342,202.24v43h53.71A10.74,10.74,0,0,1,406.41,256ZM191.54,245.26H320.46v-43a10.74,10.74,0,0,0-10.74-10.74H202.28a10.74,10.74,0,0,0-10.74,10.74h0Zm128.92,21.48H191.54v43a10.74,10.74,0,0,0,10.74,10.74H309.72a10.74,10.74,0,0,0,10.74-10.74Z"/></g></svg>