<?xml version="1.0"?>
<svg xmlns="http://www.w3.org/2000/svg" xmlns:xlink="http://www.w3.org/1999/xlink" xmlns:svgjs="http://svgjs.com/svgjs" version="1.1" width="512" height="512" x="0" y="0" viewBox="0 0 32 32" style="enable-background:new 0 0 512 512" xml:space="preserve"><g><linearGradient xmlns="http://www.w3.org/2000/svg" id="Gradient-Icon" gradientUnits="userSpaceOnUse" x1="6.987" x2="25.013" y1="31.611" y2=".389"><stop stop-opacity="1" stop-color="#000000" offset="0.011583011583011582"/><stop stop-opacity="1" stop-color="#000000" offset="1"/></linearGradient><g xmlns="http://www.w3.org/2000/svg" id="Layer_2" data-name="Layer 2"><path d="m10 29a1 1 0 0 1 -1 1h-4a3 3 0 0 1 -3-3v-4a1 1 0 0 1 2 0v4a1 1 0 0 0 1 1h4a1 1 0 0 1 1 1zm19-7a1 1 0 0 0 -1 1v4a1 1 0 0 1 -1 1h-4a1 1 0 0 0 0 2h4a3 3 0 0 0 3-3v-4a1 1 0 0 0 -1-1zm-26-12a1 1 0 0 0 1-1v-4a1 1 0 0 1 1-1h4a1 1 0 0 0 0-2h-4a3 3 0 0 0 -3 3v4a1 1 0 0 0 1 1zm24-8h-4a1 1 0 0 0 0 2h4a1 1 0 0 1 1 1v4a1 1 0 0 0 2 0v-4a3 3 0 0 0 -3-3zm3 14a1 1 0 0 1 -1 1h-5v4a3 3 0 0 1 -3 3h-10a3 3 0 0 1 -3-3v-4h-5a1 1 0 0 1 0-2h5v-4a3 3 0 0 1 3-3h10a3 3 0 0 1 3 3v4h5a1 1 0 0 1 1 1zm-20-1h12v-4a1 1 0 0 0 -1-1h-10a1 1 0 0 0 -1 1zm12 2h-12v4a1 1 0 0 0 1 1h10a1 1 0 0 0 1-1z" fill="url(#Gradient-Icon)" data-original="url(#Gradient-Icon)"/></g></g></svg>
